<svg width="40" height="41" viewBox="0 0 40 41" fill="none" xmlns="http://www.w3.org/2000/svg">
<path fill-rule="evenodd" clip-rule="evenodd" d="M20 3C10.3359 3 2.5 11.0313 2.5 20.9453C2.5 28.875 7.51562 35.5938 14.4687 37.9688C15.3437 38.1328 15.6641 37.5781 15.6641 37.1016C15.6641 36.6719 15.6484 35.5469 15.6406 34.0469C10.7734 35.1328 9.74219 31.6406 9.74219 31.6406C8.94531 29.5703 7.79688 29.0156 7.79688 29.0156C6.21094 27.8984 7.91406 27.9219 7.91406 27.9219C9.67188 28.0469 10.5938 29.7734 10.5938 29.7734C12.1563 32.5156 14.6875 31.7266 15.6875 31.2656C15.8438 30.1094 16.2969 29.3125 16.7969 28.8672C12.9141 28.4141 8.82812 26.875 8.82812 20C8.82812 18.0391 9.50781 16.4375 10.625 15.1875C10.4453 14.7344 9.84375 12.9062 10.7969 10.4375C10.7969 10.4375 12.2656 9.95312 15.6094 12.2734C17.0078 11.875 18.5 11.6797 19.9922 11.6719C21.4766 11.6797 22.9766 11.875 24.375 12.2734C27.7187 9.95312 29.1797 10.4375 29.1797 10.4375C30.1328 12.9062 29.5313 14.7344 29.3516 15.1875C30.4688 16.4453 31.1484 18.0469 31.1484 20C31.1484 26.8906 27.0547 28.4062 23.1562 28.8516C23.7812 29.4062 24.3438 30.5 24.3438 32.1719C24.3438 34.5703 24.3203 36.5078 24.3203 37.0937C24.3203 37.5703 24.6328 38.1328 25.5234 37.9531C32.4922 35.5859 37.5 28.8672 37.5 20.9453C37.5 11.0313 29.6641 3 20 3Z" fill="#0079AC"/>
</svg>
