<svg width="40" height="41" viewBox="0 0 40 41" fill="none" xmlns="http://www.w3.org/2000/svg">
<g clip-path="url(#clip0_101_319)">
<path fill-rule="evenodd" clip-rule="evenodd" d="M40 5.5C40 2.74039 37.7596 0.5 35 0.5H5C2.24039 0.5 0 2.74039 0 5.5V35.5C0 38.2596 2.24039 40.5 5 40.5H35C37.7596 40.5 40 38.2596 40 35.5V5.5Z" fill="#0079AC"/>
<path d="M11.4698 14.4585H4.76978V34.6118H11.4698V14.4585Z" fill="white"/>
<path d="M8.165 4.74072C5.87273 4.74072 4.375 6.24775 4.375 8.22299C4.375 10.1567 5.82719 11.7053 8.07633 11.7053H8.11961C10.4558 11.7053 11.9099 10.1567 11.9099 8.22299C11.8666 6.24775 10.4559 4.74072 8.165 4.74072V4.74072Z" fill="white"/>
<path d="M27.9123 13.9846C24.3584 13.9846 22.7666 15.9391 21.8752 17.3119V14.4585H15.1769C15.2657 16.3489 15.1769 34.6117 15.1769 34.6117H21.8751V23.3567C21.8751 22.7543 21.9184 22.152 22.0959 21.7215C22.5794 20.5184 23.6823 19.2721 25.5329 19.2721C27.9557 19.2721 28.9263 21.1209 28.9263 23.8289V34.6117H35.6248V23.0547C35.6248 16.8643 32.3198 13.9846 27.9123 13.9846V13.9846Z" fill="white"/>
</g>
<defs>
<clipPath id="clip0_101_319">
<rect width="40" height="40" fill="white" transform="translate(0 0.5)"/>
</clipPath>
</defs>
</svg>
